<svg id="categories-icon" xmlns="http://www.w3.org/2000/svg" width="18" height="18" viewBox="0 0 18 18">
  <g id="Group_95" data-name="Group 95">
    <path id="Path_209" data-name="Path 209" d="M38.636,65.545h4.909V60.636H38.636ZM37,60.636A1.632,1.632,0,0,1,38.636,59h4.91a1.632,1.632,0,0,1,1.636,1.636v4.91a1.632,1.632,0,0,1-1.636,1.636h-4.91A1.632,1.632,0,0,1,37,65.546Zm1.636,14.728h4.909V70.455H38.636ZM37,70.454a1.632,1.632,0,0,1,1.636-1.636h4.91a1.632,1.632,0,0,1,1.636,1.636v4.91A1.632,1.632,0,0,1,43.546,77h-4.91A1.632,1.632,0,0,1,37,75.364Zm11.455,4.909h4.909V70.455H48.455Zm-1.636-4.909a1.632,1.632,0,0,1,1.636-1.636h4.91A1.632,1.632,0,0,1,55,70.454v4.91A1.632,1.632,0,0,1,53.364,77h-4.91a1.632,1.632,0,0,1-1.636-1.636Zm1.636-4.909h4.909V60.636H48.455Zm-1.636-4.909A1.632,1.632,0,0,1,48.454,59h4.91A1.632,1.632,0,0,1,55,60.636v4.91a1.632,1.632,0,0,1-1.636,1.636h-4.91a1.632,1.632,0,0,1-1.636-1.636Z" transform="translate(-37 -59)" fill="#707070"/>
  </g>
</svg>
