<svg xmlns="http://www.w3.org/2000/svg" width="18" height="18.315" viewBox="0 0 18 18.315">
  <path id="icons8-settings" d="M9.035,2,8.586,4.311A7.281,7.281,0,0,0,6.531,5.493l-2.22-.765L2.172,8.43,3.95,9.975a7.331,7.331,0,0,0-.1,1.182,7.45,7.45,0,0,0,.1,1.182v0L2.172,13.887l2.139,3.7,2.218-.764A7.283,7.283,0,0,0,8.586,18l.449,2.311h4.275L13.758,18a7.273,7.273,0,0,0,2.055-1.182l2.22.766,2.137-3.7L18.394,12.34a6.777,6.777,0,0,0,0-2.363v0l1.778-1.547-2.139-3.7-2.218.764a7.281,7.281,0,0,0-2.057-1.18L13.309,2Zm1.51,1.831H11.8l.356,1.831.955.361a5.44,5.44,0,0,1,1.542.884l.791.647,1.76-.6.628,1.086L16.425,9.26l.161,1.007v0a4.948,4.948,0,0,1,0,1.778l-.163,1.007,1.406,1.223L17.2,15.364l-1.758-.606-.792.649a5.432,5.432,0,0,1-1.54.884h0l-.955.361L11.8,18.483H10.544l-.356-1.831-.955-.361a5.442,5.442,0,0,1-1.542-.884L6.9,14.76l-1.76.6-.628-1.086,1.408-1.225-.163-1v0a5.64,5.64,0,0,1-.08-.891,5.507,5.507,0,0,1,.08-.889l.163-1.007L4.513,8.038l.628-1.087,1.76.606.791-.649a5.441,5.441,0,0,1,1.542-.884l.955-.361Zm.628,3.663a3.663,3.663,0,1,0,3.663,3.663A3.678,3.678,0,0,0,11.172,7.494Zm0,1.831A1.831,1.831,0,1,1,9.34,11.157,1.823,1.823,0,0,1,11.172,9.326Z" transform="translate(-2.172 -2)" fill="#707070"/>
</svg>
